<?xml version="1.0" standalone="no"?>
<!DOCTYPE svg PUBLIC "-//W3C//DTD SVG 20010904//EN"
 "http://www.w3.org/TR/2001/REC-SVG-20010904/DTD/svg10.dtd">
<svg version="1.0" xmlns="http://www.w3.org/2000/svg"
 width="700.000000pt" height="700.000000pt" viewBox="0 0 700.000000 700.000000"
 preserveAspectRatio="xMidYMid meet">
<metadata>
Created by potrace 1.11, written by Peter Selinger 2001-2013
</metadata>
<g transform="translate(0.000000,700.000000) scale(0.100000,-0.100000)"
fill="#000000" stroke="none">
<path d="M3190 6297 c-3 -2 -30 -7 -60 -10 -62 -7 -234 -40 -325 -63 -77 -20
-325 -103 -345 -116 -17 -11 -22 -12 126 37 198 66 409 110 634 130 139 13
429 8 543 -10 12 -2 43 -6 68 -9 116 -16 198 -33 324 -67 111 -30 339 -109
332 -115 -2 -2 -50 12 -108 32 -117 40 -300 82 -428 100 -25 3 -57 8 -71 10
-148 23 -536 23 -759 -1 -424 -45 -887 -223 -1243 -478 -155 -111 -217 -164
-368 -317 -127 -128 -215 -236 -322 -395 -90 -135 -105 -153 -63 -80 56 99
180 280 237 345 7 9 38 45 68 80 60 71 152 164 275 279 88 81 79 77 -35 -18
-185 -155 -393 -391 -532 -606 -230 -356 -388 -810 -425 -1222 -15 -164 -8
-526 12 -633 2 -14 9 -56 15 -95 28 -182 107 -438 197 -645 251 -570 601 -992
1083 -1305 237 -155 533 -283 811 -354 76 -19 86 -21 194 -40 33 -6 71 -14 85
-18 14 -3 174 -8 355 -9 386 -4 457 4 763 82 51 13 94 24 97 24 3 0 5 5 5 10
0 7 -6 7 -17 2 -10 -5 -61 -19 -113 -31 -121 -28 -129 -29 -176 -36 -21 -4
-50 -8 -64 -10 -141 -24 -566 -27 -725 -6 -110 14 -336 57 -375 71 -21 7 -161
49 -223 67 -10 3 -17 6 -15 9 2 2 44 -8 93 -22 50 -13 103 -27 119 -30 16 -2
32 -7 36 -9 6 -4 84 -17 175 -30 22 -3 51 -8 65 -10 107 -18 463 -26 635 -13
451 33 874 172 1253 410 85 53 120 77 217 151 270 204 519 490 689 790 15 26
29 47 32 47 15 0 -141 -251 -234 -375 -141 -187 -319 -373 -481 -500 -89 -70
-127 -104 -76 -69 365 258 690 641 882 1043 112 234 209 547 239 766 3 28 8
59 10 70 19 90 25 460 11 612 -37 407 -172 808 -406 1211 -60 104 -202 317
-221 332 -3 3 -24 27 -45 55 -46 57 -45 56 -144 159 -341 355 -769 608 -1261
744 -41 12 -88 24 -105 27 -16 3 -77 15 -135 27 -91 18 -151 22 -440 25 -184
3 -337 3 -340 0z m515 -137 c33 -5 84 -11 114 -14 171 -20 453 -96 641 -173
431 -178 806 -460 1100 -828 238 -298 434 -710 520 -1091 15 -71 29 -120 29
-109 0 11 -4 38 -9 60 -5 22 -12 56 -15 75 -22 127 -96 364 -161 517 -108 255
-287 536 -465 732 -23 25 -65 71 -93 102 -28 30 12 -8 89 -86 405 -408 617
-835 710 -1435 29 -190 27 -548 -5 -765 -17 -116 -19 -125 -51 -255 -50 -206
-115 -383 -203 -560 -76 -150 -86 -169 -96 -175 -4 -3 16 42 45 99 82 162 179
423 210 562 2 10 13 60 24 109 11 50 22 117 25 150 4 51 4 54 -4 20 -5 -22
-12 -58 -15 -80 -4 -22 -19 -89 -35 -150 -180 -692 -603 -1264 -1211 -1640
-298 -185 -703 -331 -1019 -369 -25 -3 -76 -10 -115 -15 -150 -19 -412 -9
-605 24 -481 80 -915 282 -1300 606 -348 294 -606 657 -778 1099 -36 92 -93
276 -108 350 -2 14 -11 52 -19 85 -13 51 -14 54 -9 15 9 -77 64 -300 101 -410
112 -333 285 -636 518 -910 16 -19 84 -89 150 -155 66 -66 95 -100 65 -75 -93
76 -281 270 -368 379 -208 261 -333 499 -428 811 -38 125 -80 306 -90 392 -3
29 -8 56 -10 59 -8 14 -19 224 -18 359 0 133 8 277 19 340 2 14 6 39 9 55 13
84 19 116 33 180 8 39 16 75 17 80 2 6 6 24 10 40 19 76 93 289 128 370 79
179 206 415 224 415 4 0 2 -6 -4 -12 -6 -7 -37 -63 -70 -125 -110 -203 -197
-430 -251 -653 -24 -95 -52 -247 -50 -270 1 -18 16 40 24 95 9 60 62 258 97
360 39 114 138 340 183 417 19 32 35 61 35 64 0 3 8 17 19 32 10 15 44 66 75
114 238 369 615 700 1031 906 196 97 364 160 545 207 46 12 279 56 319 61 25
2 75 8 111 13 86 10 309 11 385 1z m-1539 -313 c-441 -278 -767 -597 -1008
-987 -99 -161 -227 -445 -276 -615 -27 -90 -69 -260 -76 -305 -3 -19 -10 -64
-16 -100 -6 -36 -12 -76 -14 -90 -3 -14 -5 -46 -5 -72 -1 -27 -5 -48 -11 -48
-5 0 -8 15 -6 33 3 17 8 73 11 122 7 105 11 132 31 240 29 149 101 390 134
447 5 10 10 23 10 29 0 23 136 286 203 394 128 205 312 428 462 560 38 33 73
65 79 70 28 27 159 128 231 177 79 54 254 159 265 157 3 0 -4 -6 -14 -12z
m-1073 -972 c-3 -9 -8 -14 -10 -11 -3 3 -2 9 2 15 9 16 15 13 8 -4z m5151
-1532 c-1 -16 -5 -71 -9 -123 -3 -52 -8 -104 -10 -115 -2 -11 -7 -42 -10 -70
-10 -82 -52 -253 -88 -360 -158 -460 -421 -851 -807 -1195 -51 -46 -246 -191
-315 -235 -148 -94 -223 -131 -99 -49 317 212 606 482 812 762 268 363 455
841 503 1282 6 58 13 111 15 118 6 22 11 13 8 -15z m-291 -1148 c-3 -9 -8 -14
-10 -11 -3 3 -2 9 2 15 9 16 15 13 8 -4z m-162 -78 c-10 -9 -11 -8 -5 6 3 10
9 15 12 12 3 -3 0 -11 -7 -18z"/>
<path d="M4543 4893 c-29 -11 -70 -221 -67 -343 1 -50 14 -196 20 -220 10 -48
4 -119 -15 -171 -37 -96 -77 -115 -110 -51 -39 76 -44 120 -42 314 l1 78 43
27 c23 15 50 35 60 45 15 16 16 18 2 18 -9 0 -33 -9 -55 -20 -49 -25 -60 -25
-60 1 0 23 -15 55 -37 81 -12 13 -20 14 -38 6 -27 -12 -46 -64 -49 -136 -1
-36 -7 -57 -17 -63 -9 -4 -27 -17 -40 -28 l-24 -20 38 -1 c35 0 37 -2 38 -32
0 -18 2 -42 4 -53 3 -11 7 -45 10 -75 8 -91 15 -123 39 -176 43 -95 135 -128
195 -70 27 26 61 101 76 170 6 28 6 27 31 -23 26 -52 70 -86 92 -72 7 4 11 36
11 86 -1 108 7 162 42 277 26 85 33 99 55 104 14 4 28 4 31 0 4 -3 5 -56 4
-116 -2 -114 5 -142 40 -161 29 -15 69 3 95 44 38 58 89 237 63 221 -5 -3 -9
-14 -9 -25 0 -12 -16 -49 -35 -83 -62 -111 -99 -125 -101 -40 -4 160 -42 224
-107 181 -24 -16 -71 -109 -87 -174 -6 -24 -16 -43 -22 -43 -8 0 -9 35 -5 118
6 111 10 142 21 180 3 9 7 28 10 42 9 54 35 100 55 100 29 0 26 13 -11 51 -47
47 -106 68 -145 52z m-267 -310 c3 -15 7 -30 10 -35 3 -5 0 -16 -7 -24 -19
-23 -29 1 -29 66 1 43 3 51 11 37 6 -10 13 -30 15 -44z m21 -189 c-4 -62 -17
-102 -17 -53 -1 13 -3 41 -6 62 -6 43 1 71 16 62 6 -3 8 -34 7 -71z"/>
<path d="M4040 4310 c-17 -10 -29 -75 -30 -156 0 -46 -5 -77 -15 -90 -13 -17
-14 -9 -15 86 0 58 -4 110 -8 115 -11 16 -56 41 -69 39 -7 -1 -23 -2 -34 -3
-21 -1 -22 -3 -14 -93 13 -150 11 -183 -16 -223 -13 -19 -30 -37 -38 -40 -21
-8 -41 14 -41 45 0 44 -10 60 -36 60 -19 0 -24 -5 -24 -27 0 -34 -48 -138 -49
-107 -1 29 28 124 49 161 17 29 17 34 4 48 -9 8 -33 15 -55 15 -59 0 -82 -31
-109 -143 -32 -133 -41 -156 -74 -184 -28 -24 -31 -24 -43 -7 -7 10 -13 32
-13 49 0 55 -45 77 -56 28 -13 -62 -38 -123 -47 -114 -10 10 16 107 44 162 17
34 17 38 2 50 -21 18 -91 14 -114 -7 -20 -18 -44 -85 -54 -149 -10 -61 -24
-102 -66 -193 -59 -127 -88 -146 -91 -59 0 28 -2 101 -4 161 -1 93 -5 112 -20
123 -23 17 -32 3 -40 -64 -10 -77 -108 -263 -139 -263 -7 0 -2 75 9 130 3 14
8 49 10 77 4 44 1 56 -19 77 -23 24 -101 53 -113 41 -9 -9 -7 -152 4 -210 5
-27 9 -84 9 -125 0 -64 -5 -83 -30 -130 -51 -93 -89 -75 -123 58 -14 56 -22
234 -13 307 1 6 24 23 51 39 79 47 77 74 -2 36 -23 -11 -45 -20 -49 -20 -4 0
-10 15 -13 34 -4 19 -16 45 -27 60 -17 22 -23 24 -44 14 -29 -13 -47 -61 -50
-137 -1 -33 -7 -57 -14 -59 -7 -2 -24 -15 -39 -28 l-27 -23 32 -1 c17 0 34 -3
36 -7 3 -5 8 -42 12 -83 4 -41 8 -88 10 -104 5 -37 -15 -84 -49 -115 -26 -24
-26 -24 -41 -5 -8 10 -14 31 -13 46 2 28 -17 58 -37 58 -7 0 -18 -23 -25 -51
-14 -55 -39 -112 -41 -91 -1 6 -2 18 -3 25 -3 17 30 112 51 147 20 35 11 50
-33 55 -75 8 -110 -33 -136 -155 -10 -49 -9 -64 2 -85 34 -64 129 -69 161 -9
11 21 19 24 46 21 41 -6 110 27 119 56 6 19 10 15 30 -27 29 -61 47 -80 90
-101 90 -43 173 56 191 228 3 31 8 57 10 57 2 0 21 -11 41 -25 52 -36 85 -33
127 13 19 20 33 30 31 22 -6 -17 -15 -119 -15 -168 -1 -27 -13 -46 -57 -92
l-55 -58 -34 14 c-44 18 -60 18 -79 -2 -66 -65 -80 -439 -24 -649 41 -157 145
-223 135 -86 -6 78 8 182 37 278 30 99 45 125 71 121 19 -3 20 -11 21 -118 1
-126 10 -156 50 -166 45 -11 74 15 115 101 22 47 38 71 38 59 1 -25 57 -135
74 -146 19 -12 57 -9 57 5 4 184 11 249 39 341 29 98 40 116 72 116 25 0 29
-21 23 -124 -5 -74 -3 -100 10 -124 31 -60 98 -42 136 35 13 26 27 55 31 64 4
9 11 33 14 53 l7 36 27 -20 c41 -29 98 -20 131 20 21 25 31 30 54 26 37 -7 93
19 114 53 9 14 17 28 18 30 2 2 15 -6 29 -17 21 -17 32 -19 51 -11 43 16 51
32 56 111 7 102 35 140 57 77 18 -53 13 -100 -21 -179 -17 -41 -34 -90 -39
-108 -6 -29 -4 -34 19 -46 15 -7 36 -12 47 -10 44 7 86 93 91 189 1 28 9 61
16 75 33 58 53 90 59 90 4 0 14 -20 24 -45 9 -25 28 -53 41 -62 22 -14 26 -14
49 1 14 9 26 26 26 39 1 12 3 87 5 167 4 185 3 183 20 131 24 -77 66 -103 110
-69 15 11 25 48 13 48 -5 0 -9 -6 -9 -14 0 -35 -21 -23 -41 23 -25 60 -51 85
-77 77 -24 -8 -29 -27 -37 -131 -7 -97 -13 -125 -24 -125 -5 0 -8 40 -7 89 3
106 -3 125 -43 145 -65 34 -89 15 -86 -69 2 -46 6 -71 20 -145 4 -18 -5 -39
-32 -77 -21 -29 -41 -52 -44 -52 -3 -1 -14 18 -25 41 -21 48 -62 70 -92 52
-18 -11 -41 -69 -44 -111 -3 -27 -13 -30 -23 -5 -38 96 12 400 68 421 21 8 21
9 -9 39 -29 28 -98 57 -115 47 -16 -10 -40 -105 -52 -206 -13 -113 -14 -155
-3 -269 6 -64 5 -80 -12 -109 -22 -41 -52 -63 -70 -52 -7 4 -14 24 -15 45 -3
35 -26 66 -48 66 -4 0 -10 -17 -14 -37 -9 -48 -35 -113 -45 -113 -5 0 -5 14 0
30 5 17 7 30 5 30 -6 0 23 81 42 117 24 45 6 58 -74 54 -48 -2 -85 -79 -98
-204 -9 -85 -98 -228 -125 -201 -5 5 -11 42 -14 83 -7 90 -24 149 -45 161 -34
18 -77 -15 -109 -82 -17 -34 -34 -80 -37 -101 -4 -20 -11 -40 -16 -43 -38 -23
-8 282 40 409 7 17 18 27 31 27 28 0 25 22 -7 52 -60 55 -127 73 -155 41 -9
-10 -24 -49 -33 -88 -20 -77 -26 -296 -12 -440 l8 -80 -43 -65 c-29 -44 -49
-65 -63 -65 -18 0 -21 9 -26 85 -10 142 -44 188 -105 145 -25 -17 -69 -105
-85 -170 -14 -54 -29 -68 -30 -28 -3 73 9 225 21 273 5 19 12 47 15 63 4 21
11 27 31 27 13 0 46 11 72 24 73 37 103 99 118 245 6 54 12 69 45 108 22 24
42 56 45 71 3 15 12 47 19 72 8 25 17 63 21 85 9 54 13 59 34 40 11 -10 37
-18 59 -20 32 -2 46 3 66 23 14 13 25 29 25 34 0 6 18 8 40 5 52 -6 97 22 125
78 20 39 21 40 40 23 28 -27 90 -24 120 7 14 13 25 29 25 35 0 6 14 8 39 4 51
-8 104 22 128 73 l17 36 13 -39 c18 -52 34 -71 65 -79 21 -5 30 -2 43 19 14
21 17 54 19 191 1 162 7 200 21 129 8 -43 46 -85 74 -81 26 4 51 26 51 46 -1
14 -2 14 -14 -1 -16 -21 -18 -19 -50 47 -26 51 -51 70 -76 55z m-1531 -478 c6
-27 5 -44 -1 -48 -23 -15 -35 28 -29 101 1 17 3 18 11 4 5 -9 13 -34 19 -57z
m13 -114 c4 -13 3 -99 -2 -128 -3 -19 -18 65 -19 108 -1 31 13 44 21 20z m418
-482 c0 -18 -29 -86 -36 -86 -3 0 -14 10 -23 22 -17 21 -17 22 13 49 35 32 46
35 46 15z m-55 -106 c-3 -5 -13 -10 -21 -10 -8 0 -12 5 -9 10 3 6 13 10 21 10
8 0 12 -4 9 -10z m1280 -57 c-7 -40 -31 -81 -41 -70 -4 3 0 21 9 39 8 18 18
43 22 56 11 36 18 18 10 -25z"/>
<path d="M6111 3884 c0 -11 3 -14 6 -6 3 7 2 16 -1 19 -3 4 -6 -2 -5 -13z"/>
<path d="M871 3834 c0 -11 3 -14 6 -6 3 7 2 16 -1 19 -3 4 -6 -2 -5 -13z"/>
<path d="M866 3793 c-6 -14 -5 -15 5 -6 7 7 10 15 7 18 -3 3 -9 -2 -12 -12z"/>
<path d="M861 3724 c0 -11 3 -14 6 -6 3 7 2 16 -1 19 -3 4 -6 -2 -5 -13z"/>
<path d="M1868 3695 c-117 -41 -198 -111 -244 -209 -14 -29 -24 -70 -24 -94 0
-78 74 -128 220 -147 72 -10 115 -24 144 -46 24 -19 25 -22 11 -48 -18 -35
-121 -131 -141 -131 -23 0 -36 56 -23 102 9 31 -11 57 -28 36 -16 -21 -43
-118 -43 -153 0 -87 99 -105 191 -35 98 75 119 108 119 185 0 86 -53 132 -192
164 -127 30 -156 47 -142 85 13 34 125 88 214 102 57 9 75 34 77 108 2 114
-16 125 -139 81z"/>
<path d="M4728 3701 c-24 -20 -46 -75 -55 -141 -3 -19 -7 -37 -8 -38 -10 -11
22 -65 46 -77 46 -25 78 -19 115 20 29 31 38 35 66 30 63 -12 130 57 144 147
9 56 -15 47 -32 -13 -7 -24 -27 -60 -43 -79 -28 -33 -31 -34 -47 -18 -9 9 -17
30 -16 46 1 31 -29 69 -46 58 -5 -3 -14 -29 -21 -58 -6 -29 -19 -64 -27 -78
-14 -24 -15 -23 -10 25 2 28 16 77 30 109 15 33 24 66 22 73 -8 21 -89 16
-118 -6z"/>
<path d="M6131 3264 c0 -11 3 -14 6 -6 3 7 2 16 -1 19 -3 4 -6 -2 -5 -13z"/>
<path d="M6121 3154 c0 -11 3 -14 6 -6 3 7 2 16 -1 19 -3 4 -6 -2 -5 -13z"/>
<path d="M2338 3050 c-32 -25 -59 -98 -85 -230 -20 -101 3 -351 39 -428 22
-45 69 -91 96 -93 34 -2 66 3 121 20 71 23 78 42 80 202 2 95 -1 120 -14 133
-14 14 -19 14 -49 -1 -44 -21 -62 -53 -47 -82 7 -11 12 -46 13 -76 4 -146 -78
-58 -127 136 -23 87 -26 118 -22 189 8 123 21 170 47 170 8 0 36 -70 77 -187
14 -43 22 -53 40 -53 29 0 71 39 77 71 10 63 -68 200 -134 234 -40 21 -83 19
-112 -5z"/>
<path d="M1835 5760 c-3 -6 1 -7 9 -4 18 7 21 14 7 14 -6 0 -13 -4 -16 -10z"/>
<path d="M1799 5733 c-13 -16 -12 -17 4 -4 16 13 21 21 13 21 -2 0 -10 -8 -17
-17z"/>
<path d="M5074 1184 c-18 -14 -18 -15 4 -4 12 6 22 13 22 15 0 8 -5 6 -26 -11z"/>
<path d="M4475 870 c-3 -6 1 -7 9 -4 18 7 21 14 7 14 -6 0 -13 -4 -16 -10z"/>
<path d="M4428 853 c7 -3 16 -2 19 1 4 3 -2 6 -13 5 -11 0 -14 -3 -6 -6z"/>
<path d="M4380 840 c-8 -5 -10 -10 -5 -10 6 0 17 5 25 10 8 5 11 10 5 10 -5 0
-17 -5 -25 -10z"/>
</g>
</svg>
